<svg fill="none" height="64" viewBox="0 0 51 64" width="51" xmlns="http://www.w3.org/2000/svg"><path clip-rule="evenodd" d="m31.7219.0174497c-8.629.2794113-16.6321 3.9018503-22.53617 10.2007503-12.18766 13.0031-11.52414 33.4972 1.47847 45.6851 4.5609 4.2746 10.0452 6.9618 15.7679 8.0967l1.7152-4.2888c-5.2181-.8718-10.2432-3.2331-14.3841-7.1143-11.17928-10.4791-11.74973-28.0994-1.2711-39.2791 5.0764-5.41566 11.9576-8.53097 19.3766-8.77096.3076-.01013.615-.01465.9218-.01465 5.5957 0 10.956 1.65988 15.5214 4.75516l1.7178-4.29565c-5.1283-3.25405-11.0601-4.9917-17.2362-4.9917-.3565 0-.7135.00581658-1.0716.0174497zm3.2715 16.3992503h-4.3518-.1459l-.0543.1356-11.4513 28.6281-.118.2955h.3181 4.6216.1474l.0532-.1374 2.8096-7.2242h12.3482l2.8449 7.2253.0537.1363h.1469 4.7849.3182l-.1183-.2955-7.3942-18.4855-.054-.1353h-.1461-4.6263-.315l.1142.2934 2.6226 6.7407h-8.7761l6.5688-16.8833.1142-.2937z" fill="#7352ba" fill-rule="evenodd"/></svg>