<svg height="16" viewBox="0 0 26 16" width="27" xmlns="http://www.w3.org/2000/svg"><path d="m7.390625 5.835938c0 .328124.03125.589843.09375.785156.066406.191406.152344.402344.273437.632812.042969.070313.058594.140625.058594.199219 0 .089844-.050781.175781-.160156.265625l-.539062.371094c-.078126.050781-.15625.078125-.222657.078125-.085937 0-.171875-.042969-.257812-.125-.121094-.132813-.222657-.273438-.308594-.414063-.085937-.148437-.171875-.316406-.265625-.515625-.664062.808594-1.503906 1.210938-2.511719 1.210938-.71875 0-1.292969-.210938-1.710937-.632813-.421875-.421875-.632813-.984375-.632813-1.6875 0-.746094.253907-1.351562.777344-1.808594.523437-.460937 1.214844-.6875 2.09375-.6875.292969 0 .589844.027344.90625.070313s.644531.113281.984375.191406v-.640625c0-.667968-.136719-1.132812-.402344-1.40625-.273437-.273437-.734375-.402344-1.394531-.402344-.296875 0-.605469.035157-.921875.113282s-.625.175781-.921875.296875c-.136719.0625-.242187.097656-.300781.117187-.058594.015625-.101563.023438-.136719.023438-.121094 0-.179687-.085938-.179687-.269532v-.433593c0-.140625.015624-.246094.058593-.304688.042969-.0625.121094-.125.242188-.1875.296875-.15625.65625-.289062 1.074219-.394531.421874-.113281.867187-.167969 1.335937-.167969 1.019531 0 1.761719.238281 2.242187.714844.46875.472656.707032 1.195313.707032 2.160156v2.847657zm-3.472656 1.335937c.28125 0 .570312-.050781.878906-.15625s.582031-.300781.8125-.5625c.136719-.167969.242187-.351563.292969-.5625.050781-.210937.085937-.464844.085937-.765625v-.367188c-.25-.0625-.515625-.117187-.789062-.152343-.273438-.035157-.539063-.050781-.804688-.050781-.570312 0-.992187.113281-1.273437.351562s-.417969.570312-.417969 1.011719c0 .410156.101563.71875.316406.929687.203125.21875.503907.324219.898438.324219zm6.867187.953125c-.152344 0-.257812-.027344-.324218-.089844-.070313-.054687-.128907-.175781-.179688-.34375l-2.011719-6.792968c-.050781-.175782-.074219-.292969-.074219-.351563 0-.140625.066407-.222656.203126-.222656h.839843c.160157 0 .273438.027343.332031.089843.070313.050782.121094.175782.171876.34375l1.4375 5.816407 1.332031-5.816407c.042969-.175781.09375-.292968.164062-.34375.066407-.054687.1875-.089843.339844-.089843h.6875c.160156 0 .273437.027343.339844.089843.070312.050782.128906.175782.164062.34375l1.351563 5.886719 1.476562-5.886719c.054688-.175781.113282-.292968.171875-.34375.070313-.054687.179688-.089843.335938-.089843h.792969c.136718 0 .214843.070312.214843.222656 0 .042969-.007812.085937-.015625.140625-.011718.050781-.027344.121094-.0625.21875l-2.058594 6.792969c-.054687.175781-.113281.292969-.179687.34375-.070313.054687-.179687.089843-.328125.089843h-.734375c-.160156 0-.273437-.027343-.339844-.089843-.070312-.0625-.128906-.175781-.164062-.351563l-1.324219-5.667968-1.320312 5.660156c-.042969.175781-.09375.289062-.160157.351562-.070312.0625-.1875.089844-.34375.089844zm10.988282.234375c-.441407 0-.886719-.050781-1.316407-.15625-.425781-.105469-.761719-.222656-.984375-.351563-.136718-.082031-.230468-.167968-.261718-.246093-.035157-.082031-.054688-.167969-.054688-.246094v-.449219c0-.183594.070312-.273437.199219-.273437.050781 0 .101562.007812.152343.027343.050782.015626.128907.050782.214844.085938.289063.132812.605469.238281.941406.308594.339844.070312.675782.105468 1.015626.105468.539062 0 .960937-.097656 1.25-.289062.289062-.195312.445312-.476562.445312-.835938 0-.246093-.078125-.449218-.230469-.613281-.15625-.167969-.445312-.316406-.863281-.457031l-1.242188-.398438c-.625-.199218-1.085937-.5-1.367187-.894531-.28125-.386719-.429687-.820312-.429687-1.277343 0-.367188.078124-.691407.230468-.972657.15625-.28125.359375-.527343.617188-.722656.257812-.203125.546875-.351563.890625-.457031.339843-.105469.699219-.1484378 1.078125-.1484378.1875 0 .382812.0078128.570312.0351558.199219.027344.378906.0625.558594.097657.167969.042969.332031.085937.484375.140625.15625.050781.277344.105468.359375.15625.121094.070312.207031.140625.257812.21875.050782.070312.078126.167968.078126.292968v.410157c0 .1875-.070313.28125-.199219.28125-.066407 0-.179688-.035157-.324219-.105469-.488281-.226562-1.035156-.339844-1.640625-.339844-.488281 0-.871094.078125-1.136719.246094-.265625.164062-.402344.421875-.402344.78125 0 .246094.085938.457031.253907.625.171875.164062.488281.332031.941406.480469l1.214844.398437c.617187.203125 1.0625.484375 1.328125.84375.261718.359375.390625.773438.390625 1.230469 0 .378906-.074219.71875-.222657 1.019531-.152343.296875-.359374.5625-.621093.773438-.265625.21875-.582031.378906-.953125.492187-.382813.125-.785156.183594-1.222656.183594zm0 0" fill="#252f3e"/><g fill="#f90" fill-rule="evenodd"><path d="m23.390625 12.632812c-2.8125 2.136719-6.902344 3.269532-10.417969 3.269532-4.925781 0-9.363281-1.871094-12.714844-4.984375-.2656245-.246094-.027343-.578125.289063-.386719 3.625 2.164062 8.101563 3.472656 12.726563 3.472656 3.121093 0 6.550781-.667968 9.707031-2.039062.472656-.21875.871093.316406.410156.667968zm0 0"/><path d="m24.5625 11.261719c-.359375-.476563-2.378906-.230469-3.292969-.113281-.273437.035156-.316406-.210938-.066406-.398438 1.605469-1.160156 4.25-.824219 4.558594-.4375.308593.394531-.085938 3.113281-1.59375 4.414062-.230469.199219-.453125.09375-.347657-.167968.339844-.871094 1.101563-2.832032.742188-3.296875zm0 0"/></g></svg>