<?xml version="1.0" encoding="UTF-8"?>
<svg xmlns="http://www.w3.org/2000/svg" xmlns:xlink="http://www.w3.org/1999/xlink" width="27px" height="16px" viewBox="0 0 26 16" version="1.1">
<g id="surface1">
<path style=" stroke:none;fill-rule:nonzero;fill:rgb(14.509804%,18.431373%,24.313725%);fill-opacity:1;" d="M 7.390625 5.835938 C 7.390625 6.164062 7.421875 6.425781 7.484375 6.621094 C 7.550781 6.8125 7.636719 7.023438 7.757812 7.253906 C 7.800781 7.324219 7.816406 7.394531 7.816406 7.453125 C 7.816406 7.542969 7.765625 7.628906 7.65625 7.71875 L 7.117188 8.089844 C 7.039062 8.140625 6.960938 8.167969 6.894531 8.167969 C 6.808594 8.167969 6.722656 8.125 6.636719 8.042969 C 6.515625 7.910156 6.414062 7.769531 6.328125 7.628906 C 6.242188 7.480469 6.15625 7.3125 6.0625 7.113281 C 5.398438 7.921875 4.558594 8.324219 3.550781 8.324219 C 2.832031 8.324219 2.257812 8.113281 1.839844 7.691406 C 1.417969 7.269531 1.207031 6.707031 1.207031 6.003906 C 1.207031 5.257812 1.460938 4.652344 1.984375 4.195312 C 2.507812 3.734375 3.199219 3.507812 4.078125 3.507812 C 4.371094 3.507812 4.667969 3.535156 4.984375 3.578125 C 5.300781 3.621094 5.628906 3.691406 5.96875 3.769531 L 5.96875 3.128906 C 5.96875 2.460938 5.832031 1.996094 5.566406 1.722656 C 5.292969 1.449219 4.832031 1.320312 4.171875 1.320312 C 3.875 1.320312 3.566406 1.355469 3.25 1.433594 C 2.933594 1.511719 2.625 1.609375 2.328125 1.730469 C 2.191406 1.792969 2.085938 1.828125 2.027344 1.847656 C 1.96875 1.863281 1.925781 1.871094 1.890625 1.871094 C 1.769531 1.871094 1.710938 1.785156 1.710938 1.601562 L 1.710938 1.167969 C 1.710938 1.027344 1.726562 0.921875 1.769531 0.863281 C 1.8125 0.800781 1.890625 0.738281 2.011719 0.675781 C 2.308594 0.519531 2.667969 0.386719 3.085938 0.28125 C 3.507812 0.167969 3.953125 0.113281 4.421875 0.113281 C 5.441406 0.113281 6.183594 0.351562 6.664062 0.828125 C 7.132812 1.300781 7.371094 2.023438 7.371094 2.988281 L 7.371094 5.835938 Z M 3.917969 7.171875 C 4.199219 7.171875 4.488281 7.121094 4.796875 7.015625 C 5.105469 6.910156 5.378906 6.714844 5.609375 6.453125 C 5.746094 6.285156 5.851562 6.101562 5.902344 5.890625 C 5.953125 5.679688 5.988281 5.425781 5.988281 5.125 L 5.988281 4.757812 C 5.738281 4.695312 5.472656 4.640625 5.199219 4.605469 C 4.925781 4.570312 4.660156 4.554688 4.394531 4.554688 C 3.824219 4.554688 3.402344 4.667969 3.121094 4.90625 C 2.839844 5.144531 2.703125 5.476562 2.703125 5.917969 C 2.703125 6.328125 2.804688 6.636719 3.019531 6.847656 C 3.222656 7.066406 3.523438 7.171875 3.917969 7.171875 Z M 10.785156 8.125 C 10.632812 8.125 10.527344 8.097656 10.460938 8.035156 C 10.390625 7.980469 10.332031 7.859375 10.28125 7.691406 L 8.269531 0.898438 C 8.21875 0.722656 8.195312 0.605469 8.195312 0.546875 C 8.195312 0.40625 8.261719 0.324219 8.398438 0.324219 L 9.238281 0.324219 C 9.398438 0.324219 9.511719 0.351562 9.570312 0.414062 C 9.640625 0.464844 9.691406 0.589844 9.742188 0.757812 L 11.179688 6.574219 L 12.511719 0.757812 C 12.554688 0.582031 12.605469 0.464844 12.675781 0.414062 C 12.742188 0.359375 12.863281 0.324219 13.015625 0.324219 L 13.703125 0.324219 C 13.863281 0.324219 13.976562 0.351562 14.042969 0.414062 C 14.113281 0.464844 14.171875 0.589844 14.207031 0.757812 L 15.558594 6.644531 L 17.035156 0.757812 C 17.089844 0.582031 17.148438 0.464844 17.207031 0.414062 C 17.277344 0.359375 17.386719 0.324219 17.542969 0.324219 L 18.335938 0.324219 C 18.472656 0.324219 18.550781 0.394531 18.550781 0.546875 C 18.550781 0.589844 18.542969 0.632812 18.535156 0.6875 C 18.523438 0.738281 18.507812 0.808594 18.472656 0.90625 L 16.414062 7.699219 C 16.359375 7.875 16.300781 7.992188 16.234375 8.042969 C 16.164062 8.097656 16.054688 8.132812 15.90625 8.132812 L 15.171875 8.132812 C 15.011719 8.132812 14.898438 8.105469 14.832031 8.042969 C 14.761719 7.980469 14.703125 7.867188 14.667969 7.691406 L 13.34375 2.023438 L 12.023438 7.683594 C 11.980469 7.859375 11.929688 7.972656 11.863281 8.035156 C 11.792969 8.097656 11.675781 8.125 11.519531 8.125 Z M 21.773438 8.359375 C 21.332031 8.359375 20.886719 8.308594 20.457031 8.203125 C 20.03125 8.097656 19.695312 7.980469 19.472656 7.851562 C 19.335938 7.769531 19.242188 7.683594 19.210938 7.605469 C 19.175781 7.523438 19.15625 7.4375 19.15625 7.359375 L 19.15625 6.910156 C 19.15625 6.726562 19.226562 6.636719 19.355469 6.636719 C 19.40625 6.636719 19.457031 6.644531 19.507812 6.664062 C 19.558594 6.679688 19.636719 6.714844 19.722656 6.75 C 20.011719 6.882812 20.328125 6.988281 20.664062 7.058594 C 21.003906 7.128906 21.339844 7.164062 21.679688 7.164062 C 22.21875 7.164062 22.640625 7.066406 22.929688 6.875 C 23.21875 6.679688 23.375 6.398438 23.375 6.039062 C 23.375 5.792969 23.296875 5.589844 23.144531 5.425781 C 22.988281 5.257812 22.699219 5.109375 22.28125 4.96875 L 21.039062 4.570312 C 20.414062 4.371094 19.953125 4.070312 19.671875 3.675781 C 19.390625 3.289062 19.242188 2.855469 19.242188 2.398438 C 19.242188 2.03125 19.320312 1.707031 19.472656 1.425781 C 19.628906 1.144531 19.832031 0.898438 20.089844 0.703125 C 20.347656 0.5 20.636719 0.351562 20.980469 0.246094 C 21.320312 0.140625 21.679688 0.0976562 22.058594 0.0976562 C 22.246094 0.0976562 22.441406 0.105469 22.628906 0.132812 C 22.828125 0.160156 23.007812 0.195312 23.1875 0.230469 C 23.355469 0.273438 23.519531 0.316406 23.671875 0.371094 C 23.828125 0.421875 23.949219 0.476562 24.03125 0.527344 C 24.152344 0.597656 24.238281 0.667969 24.289062 0.746094 C 24.339844 0.816406 24.367188 0.914062 24.367188 1.039062 L 24.367188 1.449219 C 24.367188 1.636719 24.296875 1.730469 24.167969 1.730469 C 24.101562 1.730469 23.988281 1.695312 23.84375 1.625 C 23.355469 1.398438 22.808594 1.285156 22.203125 1.285156 C 21.714844 1.285156 21.332031 1.363281 21.066406 1.53125 C 20.800781 1.695312 20.664062 1.953125 20.664062 2.3125 C 20.664062 2.558594 20.75 2.769531 20.917969 2.9375 C 21.089844 3.101562 21.40625 3.269531 21.859375 3.417969 L 23.074219 3.816406 C 23.691406 4.019531 24.136719 4.300781 24.402344 4.660156 C 24.664062 5.019531 24.792969 5.433594 24.792969 5.890625 C 24.792969 6.269531 24.71875 6.609375 24.570312 6.910156 C 24.417969 7.207031 24.210938 7.472656 23.949219 7.683594 C 23.683594 7.902344 23.367188 8.0625 22.996094 8.175781 C 22.613281 8.300781 22.210938 8.359375 21.773438 8.359375 Z M 21.773438 8.359375 "/>
<path style=" stroke:none;fill-rule:evenodd;fill:rgb(100%,60%,0%);fill-opacity:1;" d="M 23.390625 12.632812 C 20.578125 14.769531 16.488281 15.902344 12.972656 15.902344 C 8.046875 15.902344 3.609375 14.03125 0.257812 10.917969 C -0.0078125 10.671875 0.230469 10.339844 0.546875 10.53125 C 4.171875 12.695312 8.648438 14.003906 13.273438 14.003906 C 16.394531 14.003906 19.824219 13.335938 22.980469 11.964844 C 23.453125 11.746094 23.851562 12.28125 23.390625 12.632812 Z M 23.390625 12.632812 "/>
<path style=" stroke:none;fill-rule:evenodd;fill:rgb(100%,60%,0%);fill-opacity:1;" d="M 24.5625 11.261719 C 24.203125 10.785156 22.183594 11.03125 21.269531 11.148438 C 20.996094 11.183594 20.953125 10.9375 21.203125 10.75 C 22.808594 9.589844 25.453125 9.925781 25.761719 10.3125 C 26.070312 10.707031 25.675781 13.425781 24.167969 14.726562 C 23.9375 14.925781 23.714844 14.820312 23.820312 14.558594 C 24.160156 13.6875 24.921875 11.726562 24.5625 11.261719 Z M 24.5625 11.261719 "/>
</g>
</svg>
