<svg fill="none" height="77" viewBox="0 0 76 77" width="76" xmlns="http://www.w3.org/2000/svg"><path d="m18.4282 43.5799c.8537.9959.7383 2.4953-.2576 3.3489s-2.4952.7383-3.3488-.2576l-14.250034-16.625c-.762355-.8894-.762355-2.2018 0-3.0913l14.250034-16.625c.8536-.99586 2.3529-1.11119 3.3488-.2576.9959.8537 1.1113 2.353.2576 3.3489l-12.92514 15.0794zm5.099 31.05c-.5547 1.1886-1.9679 1.7025-3.1566 1.1478-1.1886-.5546-1.7025-1.9679-1.1478-3.1565l33.25-71.24999c.5547-1.188616 1.9679-1.702517 3.1566-1.147828 1.1886.554688 1.7025 1.967918 1.1478 3.156538zm34.0446-42.2087c-.8537-.9959-.7383-2.4952.2576-3.3489.9959-.8536 2.4952-.7383 3.3488.2576l14.25 16.625c.7624.8894.7624 2.2019 0 3.0913l-14.25 16.625c-.8536.9959-2.3529 1.1112-3.3488.2576s-1.1113-2.353-.2576-3.3489l12.9251-15.0793z" fill="#7352ba"/></svg>