<svg fill="none" height="64" viewBox="0 0 64 64" width="64" xmlns="http://www.w3.org/2000/svg"><path clip-rule="evenodd" d="m45.19 38.5778c.2653-.2413.5309-.4861.7969-.7341 9.2448-8.6209 12.9655-22.2722 11.157-30.94491-10.5665-2.46487-20.4746.04905-29.7195 8.67001-.8392.7825-1.6358 1.5999-2.3867 2.4433-.0573-.0102-.1164-.0155-.1767-.0155h-11.9109c-.4089 0-.7766.2489-.9285.6286l-4.95001 12.375c-.12324.3081-.08562.6572.10041.932s.49624.4394.82807.4394h9.43803c-.5032 2.5701-.4628 4.9687.2041 6.9771-1.2625.2662-2.6393 1.129-3.96 2.3607-2.5881 2.4134-2.7872 7.1385-1.4236 10.4857 3.9774 1.7831 7.3077 1.6762 9.8957-.7372 1.3721-1.2795 2.128-3.1163 2.1777-4.9281 1.4892 1.7172 3.7107 2.0696 6.3984 1.3686v9.0419c0 .3287.1616.6365.4322.8231.2706.1867.6156.2285.923.1117l12.4595-4.7333c.3882-.1474.6449-.5195.6449-.9348zm-2 1.7611c-3.7326 3.1753-7.3311 5.6003-10.4596 6.882v8.2698l10.4596-3.9735zm-29.5629-20.3423h9.764c-2.5772 3.3358-4.4577 6.9523-5.4621 10.375h-8.4519zm41.7738-11.42522c.4996 3.73282.0045 8.41372-1.5877 13.18632-1.7708 5.3078-4.848 10.5741-9.1903 14.6233-4.5564 4.2489-8.9022 7.3995-12.442 8.9021-1.7702.7514-3.1861 1.0243-4.2472.9396-.9781-.078-1.69-.4544-2.2484-1.1989l-.0643-.0857-.073-.0783c-.234-.251-.9108-.8821-1.7022-1.6201-.5069-.4728-1.0608-.9893-1.5754-1.4779-.7013-.6657-1.3734-1.3186-1.8876-1.8534-.2585-.2688-.4577-.4877-.5942-.6513-.0433-.0519-.0734-.0901-.093-.1159-.9887-2.4466-.7769-6.0488.8158-10.1489 1.5933-4.1015 4.4628-8.404 8.277-11.9608 8.4063-7.83899 17.2207-10.2775 26.6125-8.46012zm-17.7004 23.27532c2.9961 0 5.425-2.4289 5.425-5.4251 0-2.9961-2.4289-5.425-5.425-5.425-2.9962 0-5.425 2.4289-5.425 5.425 0 2.9962 2.4288 5.4251 5.425 5.4251zm0 2c4.1007 0 7.425-3.3243 7.425-7.4251 0-4.1007-3.3243-7.425-7.425-7.425-4.1008 0-7.425 3.3243-7.425 7.425 0 4.1008 3.3242 7.4251 7.425 7.4251zm-24.2233 12.9675c-.1386 1.2996.0043 2.6724.3693 3.8779 1.4622.5663 2.7052.779 3.7536.7121 1.1816-.0754 2.2268-.5106 3.1902-1.409 1.5861-1.479 1.967-4.0029 1.0619-5.6742-.0543-.0622-.1363-.1517-.2468-.2679-.222-.2335-.5112-.5251-.8157-.8276-.211-.2095-.4431-.4375-.6599-.6505v-.0001c-.3557-.3494-.6701-.6583-.7825-.7788l-.0459-.0492-.0425-.0523c-.2094-.2573-.3866-.3499-.5206-.3912-.1469-.0453-.3758-.0686-.7264.0117-.7532.1726-1.793.7634-2.9657 1.857-.8366.7801-1.3994 2.0529-1.569 3.6421zm8.4212-2.4381c-.0002-.0001-.0028-.0033-.0074-.0094.0052.0065.0075.0095.0074.0094z" fill="#7352ba" fill-rule="evenodd"/></svg>