<svg fill="none" height="86" viewBox="0 0 70 86" width="70" xmlns="http://www.w3.org/2000/svg"><path clip-rule="evenodd" d="m51.4258.87415c-.4018-.397575-.9447-.62415-1.5133-.62415h-38.475c-5.89095 0-10.6875 4.79228-10.6875 10.6875v64.125c0 5.8952 4.79655 10.6875 10.6875 10.6875h47.025c5.891 0 10.6875-4.7923 10.6875-10.6875v-55.575c0-.5686-.2266-1.1115-.6242-1.5134zm13.4511 74.18785c0 3.5355-2.8771 6.4125-6.4125 6.4125h-47.025c-3.53547 0-6.41254-2.877-6.41254-6.4125v-64.125c0-3.53539 2.87707-6.41246 6.41254-6.41246h37.59l15.8475 15.84746zm-21.375-49.162h-25.65c-1.1799 0-2.1375-.9576-2.1375-2.1375s.9576-2.1375 2.1375-2.1375h25.65c1.1799 0 2.1375.9576 2.1375 2.1375s-.9576 2.1375-2.1375 2.1375zm-27.7875 14.963c0 1.1799.9576 2.1375 2.1375 2.1375h34.2c1.1799 0 2.1375-.9576 2.1375-2.1375s-.9576-2.1375-2.1375-2.1375h-34.2c-1.1799 0-2.1375.9576-2.1375 2.1375zm2.1375 14.9629h34.2c1.1799 0 2.1375.9576 2.1375 2.1375s-.9576 2.1375-2.1375 2.1375h-34.2c-1.1799 0-2.1375-.9576-2.1375-2.1375s.9576-2.1375 2.1375-2.1375z" fill="#7352ba" fill-rule="evenodd"/></svg>