<?xml version="1.0" encoding="UTF-8"?>
<svg xmlns="http://www.w3.org/2000/svg" xmlns:xlink="http://www.w3.org/1999/xlink" width="25px" height="25px" viewBox="0 0 25 25" version="1.1">
<g id="surface1">
<path style=" stroke:none;fill-rule:nonzero;fill:rgb(0%,0%,0%);fill-opacity:1;" d="M 20.753906 6.34375 L 16.292969 1.414062 C 15.894531 0.96875 15.328125 0.714844 14.730469 0.710938 L 4.359375 0.710938 C 4.179688 0.710938 4.007812 0.78125 3.878906 0.910156 C 3.753906 1.039062 3.683594 1.210938 3.683594 1.390625 L 3.683594 23.609375 C 3.683594 23.789062 3.753906 23.960938 3.878906 24.089844 C 4.007812 24.21875 4.179688 24.289062 4.359375 24.289062 L 20.640625 24.289062 C 20.820312 24.289062 20.992188 24.21875 21.121094 24.089844 C 21.246094 23.960938 21.316406 23.789062 21.316406 23.609375 L 21.316406 7.769531 C 21.3125 7.242188 21.113281 6.734375 20.753906 6.34375 Z M 18.933594 6.953125 L 15.90625 6.953125 C 15.78125 6.953125 15.679688 6.847656 15.675781 6.722656 L 15.675781 3.347656 C 15.679688 3.257812 15.738281 3.179688 15.824219 3.144531 C 15.90625 3.113281 16.003906 3.132812 16.066406 3.195312 L 19.089844 6.566406 C 19.152344 6.632812 19.167969 6.726562 19.136719 6.808594 C 19.101562 6.890625 19.023438 6.949219 18.933594 6.953125 Z M 19.558594 22.90625 L 5.441406 22.90625 C 5.226562 22.90625 5.050781 22.730469 5.050781 22.515625 L 5.050781 2.472656 C 5.050781 2.257812 5.226562 2.082031 5.441406 2.082031 L 13.917969 2.082031 C 14.019531 2.082031 14.121094 2.121094 14.195312 2.195312 C 14.265625 2.269531 14.308594 2.367188 14.308594 2.472656 L 14.308594 7.8125 C 14.308594 8.097656 14.539062 8.332031 14.828125 8.332031 L 19.257812 8.332031 C 19.628906 8.339844 19.921875 8.640625 19.921875 9.011719 L 19.921875 22.527344 C 19.917969 22.726562 19.757812 22.890625 19.558594 22.90625 Z M 19.558594 22.90625 "/>
</g>
</svg>
