<?xml version="1.0" encoding="UTF-8"?>
<svg xmlns="http://www.w3.org/2000/svg" xmlns:xlink="http://www.w3.org/1999/xlink" width="25px" height="25px" viewBox="0 0 25 25" version="1.1">
<g id="surface1">
<path style=" stroke:none;fill-rule:nonzero;fill:rgb(0%,0%,0%);fill-opacity:1;" d="M 2.917969 11.515625 L 11.097656 11.515625 C 11.328125 11.515625 11.515625 11.328125 11.515625 11.097656 L 11.515625 2.917969 C 11.515625 2.6875 11.328125 2.5 11.097656 2.5 L 2.917969 2.5 C 2.6875 2.5 2.5 2.6875 2.5 2.917969 L 2.5 11.097656 C 2.5 11.328125 2.6875 11.515625 2.917969 11.515625 Z M 3.332031 3.332031 L 10.679688 3.332031 L 10.679688 10.679688 L 3.332031 10.679688 Z M 3.332031 3.332031 "/>
<path style=" stroke:none;fill-rule:nonzero;fill:rgb(0%,0%,0%);fill-opacity:1;" d="M 13.902344 22.5 L 22.082031 22.5 C 22.3125 22.5 22.5 22.3125 22.5 22.082031 L 22.5 13.902344 C 22.5 13.671875 22.3125 13.484375 22.082031 13.484375 L 13.902344 13.484375 C 13.671875 13.484375 13.484375 13.671875 13.484375 13.902344 L 13.484375 22.082031 C 13.484375 22.3125 13.671875 22.5 13.902344 22.5 Z M 14.316406 14.316406 L 21.667969 14.316406 L 21.667969 21.667969 L 14.316406 21.667969 Z M 14.316406 14.316406 "/>
<path style=" stroke:none;fill-rule:nonzero;fill:rgb(0%,0%,0%);fill-opacity:1;" d="M 13.902344 11.515625 L 22.082031 11.515625 C 22.3125 11.515625 22.5 11.328125 22.5 11.097656 L 22.5 2.917969 C 22.5 2.6875 22.3125 2.5 22.082031 2.5 L 13.902344 2.5 C 13.671875 2.5 13.484375 2.6875 13.484375 2.917969 L 13.484375 11.097656 C 13.484375 11.328125 13.671875 11.515625 13.902344 11.515625 Z M 14.316406 3.332031 L 21.667969 3.332031 L 21.667969 10.679688 L 14.316406 10.679688 Z M 14.316406 3.332031 "/>
<path style=" stroke:none;fill-rule:nonzero;fill:rgb(0%,0%,0%);fill-opacity:1;" d="M 2.917969 22.5 L 11.097656 22.5 C 11.328125 22.5 11.515625 22.3125 11.515625 22.082031 L 11.515625 13.902344 C 11.515625 13.671875 11.328125 13.484375 11.097656 13.484375 L 2.917969 13.484375 C 2.6875 13.484375 2.5 13.671875 2.5 13.902344 L 2.5 22.082031 C 2.5 22.3125 2.6875 22.5 2.917969 22.5 Z M 3.332031 14.316406 L 10.679688 14.316406 L 10.679688 21.667969 L 3.332031 21.667969 Z M 3.332031 14.316406 "/>
</g>
</svg>
