<?xml version="1.0" encoding="UTF-8"?>
<svg xmlns="http://www.w3.org/2000/svg" xmlns:xlink="http://www.w3.org/1999/xlink" width="25px" height="25px" viewBox="0 0 25 25" version="1.1">
<g id="surface1">
<path style=" stroke:none;fill-rule:nonzero;fill:rgb(0%,0%,0%);fill-opacity:1;" d="M 3.5 4.75 L 6.796875 4.75 C 7.089844 4.75 7.371094 4.851562 7.597656 5.039062 L 8.679688 5.941406 C 8.726562 5.980469 8.78125 6 8.839844 6 L 19 6 C 19.691406 6 20.25 6.558594 20.25 7.25 L 20.25 9.5 C 20.25 9.636719 20.363281 9.75 20.5 9.75 L 21.5 9.75 C 22.042969 9.75 22.488281 10.191406 22.488281 10.738281 C 22.488281 10.816406 22.476562 10.890625 22.460938 10.964844 L 20.476562 19.289062 C 20.34375 19.851562 19.839844 20.25 19.261719 20.25 L 3.5 20.25 C 2.808594 20.25 2.25 19.691406 2.25 19 L 2.25 6 C 2.25 5.308594 2.808594 4.75 3.5 4.75 Z M 21.09375 11.308594 C 21.097656 11.289062 21.101562 11.269531 21.101562 11.25 C 21.101562 11.113281 20.988281 11 20.851562 11 L 6.667969 11 C 6.445312 11 6.246094 11.152344 6.1875 11.371094 L 4.210938 18.683594 C 4.203125 18.707031 4.199219 18.726562 4.199219 18.75 C 4.199219 18.886719 4.3125 19 4.449219 19 L 19.066406 19 C 19.179688 19 19.28125 18.921875 19.308594 18.808594 Z M 3.75 6 C 3.613281 6 3.5 6.113281 3.5 6.25 L 3.5 15.933594 C 3.5 15.980469 3.53125 16.019531 3.574219 16.03125 C 3.625 16.046875 3.679688 16.015625 3.695312 15.960938 L 5.125 10.675781 C 5.273438 10.128906 5.765625 9.75 6.332031 9.75 L 18.75 9.75 C 18.886719 9.75 19 9.636719 19 9.5 L 19 7.5 C 19 7.363281 18.886719 7.25 18.75 7.25 L 8.75 7.25 C 8.457031 7.25 8.175781 7.148438 7.949219 6.960938 L 6.867188 6.058594 C 6.824219 6.019531 6.765625 6 6.707031 6 Z M 3.75 6 "/>
</g>
</svg>
