<?xml version="1.0" standalone="no"?>
<!DOCTYPE svg PUBLIC "-//W3C//DTD SVG 1.0//EN" "http://www.w3.org/TR/2001/REC-SVG-20010904/DTD/svg10.dtd">
<svg xmlns="http://www.w3.org/2000/svg" xmlns:xlink="http://www.w3.org/1999/xlink" id="body_1" width="102" height="77">

<g transform="matrix(0.33552632 0 0 0.33552632 -0 7.967104)">
	<g>
        <path d="M86.4 66.4C 86.4 70.1 86.8 73.1 87.5 75.3C 88.3 77.5 89.3 79.9 90.7 82.5C 91.2 83.3 91.399994 84.1 91.399994 84.8C 91.399994 85.8 90.799995 86.8 89.49999 87.8L89.49999 87.8L83.19999 92C 82.29999 92.6 81.39999 92.9 80.59999 92.9C 79.59999 92.9 78.59999 92.4 77.59999 91.5C 76.2 90 75 88.4 74 86.8C 73 85.100006 72 83.200005 70.9 80.9C 63.100002 90.1 53.300003 94.700005 41.5 94.700005C 33.1 94.700005 26.4 92.3 21.5 87.50001C 16.6 82.700005 14.1 76.30001 14.1 68.3C 14.1 59.800003 17.1 52.9 23.2 47.700005C 29.300001 42.500004 37.4 39.900005 47.7 39.900005C 51.100002 39.900005 54.600002 40.200005 58.300003 40.700005C 62.000004 41.200005 65.8 42.000004 69.8 42.900005L69.8 42.900005L69.8 35.600006C 69.8 28.000006 68.200005 22.700006 65.100006 19.600006C 61.900005 16.500006 56.500008 15.000006 48.800007 15.000006C 45.300007 15.000006 41.70001 15.400005 38.000008 16.300005C 34.300007 17.200005 30.700008 18.300005 27.200008 19.700005C 25.600008 20.400005 24.40001 20.800005 23.700008 21.000004C 23.000008 21.200005 22.500008 21.300003 22.100008 21.300003C 20.700008 21.300003 20.000008 20.300003 20.000008 18.200003L20.000008 18.200003L20.000008 13.300003C 20.000008 11.700003 20.200008 10.500003 20.700008 9.800003C 21.200008 9.100003 22.100008 8.400003 23.500008 7.700003C 27.000008 5.9000034 31.200008 4.4000034 36.100006 3.2000031C 41.000008 1.9000032 46.200005 1.3000032 51.700005 1.3000032C 63.600006 1.3000032 72.3 4.0000033 77.90001 9.400003C 83.40001 14.800003 86.20001 23.000004 86.20001 34.000004L86.20001 34.000004L86.20001 66.4L86.4 66.4zM45.8 81.6C 49.1 81.6 52.5 81 56.1 79.799995C 59.699997 78.6 62.899998 76.399994 65.6 73.399994C 67.2 71.49999 68.4 69.399994 69 66.99999C 69.6 64.59999 70 61.699993 70 58.29999L70 58.29999L70 54.09999C 67.1 53.39999 64 52.79999 60.8 52.39999C 57.6 51.99999 54.5 51.79999 51.4 51.79999C 44.7 51.79999 39.800003 53.09999 36.5 55.79999C 33.2 58.499992 31.6 62.29999 31.6 67.29999C 31.6 71.999985 32.8 75.499985 35.3 77.89999C 37.7 80.4 41.2 81.6 45.8 81.6zM126.1 92.4C 124.299995 92.4 123.1 92.1 122.299995 91.4C 121.49999 90.8 120.799995 89.4 120.2 87.5L120.2 87.5L96.7 10.2C 96.1 8.2 95.799995 6.8999996 95.799995 6.2C 95.799995 4.6 96.6 3.6999998 98.2 3.6999998L98.2 3.6999998L108 3.6999998C 109.9 3.6999998 111.2 3.9999998 111.9 4.7C 112.700005 5.2999997 113.3 6.7 113.9 8.6L113.9 8.6L130.7 74.799995L146.3 8.599998C 146.8 6.5999985 147.40001 5.2999983 148.2 4.6999984C 149 4.0999985 150.4 3.6999984 152.2 3.6999984L152.2 3.6999984L160.2 3.6999984C 162.09999 3.6999984 163.4 3.9999983 164.2 4.6999984C 165 5.2999983 165.7 6.6999984 166.09999 8.599998L166.09999 8.599998L181.9 75.6L199.2 8.599998C 199.8 6.5999985 200.5 5.2999983 201.2 4.6999984C 202 4.0999985 203.3 3.6999984 205.09999 3.6999984L205.09999 3.6999984L214.4 3.6999984C 216 3.6999984 216.9 4.4999986 216.9 6.1999984C 216.9 6.6999984 216.79999 7.1999984 216.7 7.7999983C 216.59999 8.399999 216.4 9.199998 216 10.299998L216 10.299998L191.9 87.6C 191.29999 89.6 190.59999 90.9 189.79999 91.5C 188.99998 92.1 187.69998 92.5 185.99998 92.5L185.99998 92.5L177.39998 92.5C 175.49998 92.5 174.19998 92.2 173.39998 91.5C 172.59998 90.8 171.89998 89.5 171.49998 87.5L171.49998 87.5L156 23L140.6 87.4C 140.1 89.4 139.5 90.700005 138.70001 91.4C 137.90001 92.1 136.50002 92.4 134.70001 92.4L134.70001 92.4L126.1 92.4zM254.6 95.1C 249.40001 95.1 244.20001 94.5 239.20001 93.299995C 234.20001 92.1 230.30002 90.799995 227.70001 89.299995C 226.1 88.399994 225.00002 87.399994 224.6 86.49999C 224.20001 85.59999 224 84.59999 224 83.69999L224 83.69999L224 78.59999C 224 76.49999 224.8 75.49999 226.3 75.49999C 226.90001 75.49999 227.5 75.59999 228.1 75.799995C 228.70001 75.99999 229.6 76.399994 230.6 76.799995C 234 78.299995 237.70001 79.49999 241.6 80.299995C 245.6 81.1 249.5 81.49999 253.5 81.49999C 259.8 81.49999 264.7 80.399994 268.1 78.19999C 271.5 75.99999 273.30002 72.79999 273.30002 68.69999C 273.30002 65.89999 272.40002 63.59999 270.6 61.69999C 268.80002 59.799988 265.4 58.09999 260.5 56.49999L260.5 56.49999L246 52C 238.7 49.7 233.3 46.3 230 41.8C 226.7 37.399998 225 32.5 225 27.3C 225 23.099998 225.9 19.4 227.7 16.199999C 229.5 12.999999 231.9 10.199999 234.9 7.999999C 237.9 5.699999 241.29999 3.999999 245.29999 2.7999992C 249.29999 1.5999992 253.49998 1.0999992 257.9 1.0999992C 260.1 1.0999992 262.4 1.1999992 264.6 1.4999992C 266.9 1.7999992 269 2.199999 271.1 2.5999992C 273.1 3.0999992 275 3.5999992 276.80002 4.1999993C 278.6 4.799999 280.00003 5.3999996 281.00003 5.999999C 282.40002 6.799999 283.40002 7.599999 284.00003 8.499999C 284.60004 9.299999 284.90002 10.399999 284.90002 11.799999L284.90002 11.799999L284.90002 16.5C 284.90002 18.6 284.10004 19.7 282.60004 19.7C 281.80005 19.7 280.50003 19.300001 278.80005 18.5C 273.10004 15.9 266.70004 14.6 259.60004 14.6C 253.90004 14.6 249.40004 15.5 246.30003 17.4C 243.20003 19.3 241.60004 22.2 241.60004 26.3C 241.60004 29.099998 242.60004 31.5 244.60004 33.399998C 246.60004 35.3 250.30003 37.199997 255.60004 38.899998L255.60004 38.899998L269.80005 43.399998C 277.00006 45.699997 282.20004 48.899998 285.30005 53C 288.40005 57.1 289.90005 61.8 289.90005 67C 289.90005 71.3 289.00006 75.2 287.30005 78.6C 285.50006 82 283.10004 85 280.00006 87.4C 276.90005 89.9 273.20007 91.700005 268.90005 93C 264.4 94.4 259.7 95.1 254.6 95.1z" stroke="none" fill="#252F3E" fill-rule="nonzero" />
		<g>
            <path d="M273.5 143.7C 240.6 168 192.8 180.9 151.7 180.9C 94.1 180.9 42.199997 159.59999 3 124.2C -0.099999905 121.399994 2.7 117.6 6.4 119.799995C 48.800003 144.4 101.1 159.29999 155.2 159.29999C 191.7 159.29999 231.79999 151.69998 268.7 136.09999C 274.2 133.6 278.9 139.7 273.5 143.7z" stroke="none" fill="#FF9900" fill-rule="nonzero" />
            <path d="M287.2 128.1C 283 122.700005 259.40002 125.50001 248.70001 126.8C 245.50002 127.200005 245.00002 124.4 247.90001 122.3C 266.7 109.100006 297.6 112.9 301.2 117.3C 304.80002 121.8 300.2 152.70001 282.6 167.5C 279.9 169.8 277.30002 168.6 278.5 165.6C 282.5 155.7 291.4 133.4 287.2 128.1z" stroke="none" fill="#FF9900" fill-rule="nonzero" />
		</g>
	</g>
</g>
</svg>